<svg xmlns="http://www.w3.org/2000/svg" viewBox="0 0 272.38 35.66"><defs><style>.a{fill:#231815;}</style></defs><title>logo</title><path class="a" d="M28.72,35.66A49,49,0,0,1,12.77,33.2C6.94,31.12,0,26.61,0,16.91,0,8.51,6.28,0,18.28,0c5.25,0,10.1,1.5,15.84,5L27.8,12.3c-4.34-4-8.8-6.45-12-6.45C12,5.84,9,9.5,9,14.16c0,9,9.42,13.05,18.74,13.05a32.62,32.62,0,0,0,5.17-.4l-4.19,8.84Z"/><path class="a" d="M73.15,35.65c-8.7-.13-14.75-1.42-20-4.24a16.27,16.27,0,0,1-8.69-14.51C44.43,11.06,48.22,0,62.57,0,71,0,75.7,3,80,11.19L61.79,22.8l-5.41,3.45,6.36.87a44.72,44.72,0,0,0,6.7.43,42.42,42.42,0,0,0,7.86-.63l-4.14,8.73ZM60.65,4.06c-3.77,0-8.32,5.06-8.32,11.34a14.93,14.93,0,0,0,.31,2.82l.64,3.52,3-2,11-7.27,2-1.33-1.37-2c-2.15-3.11-5-5.13-7.22-5.13Z"/><path class="a" d="M101,34.23H92V1.34L101,1V8.64l3.77-2.8C110.44,1.62,115,.48,119.25.14l-1.38,9a14.66,14.66,0,0,0-2.57-.24c-4.15,0-8.58,2.23-13.53,6.8l-.76.7V34.23Z"/><path class="a" d="M147.94,35.66c-18.51,0-19.44-15.11-19.44-18.14C128.5,6,137.73,0,146.84,0c13.42,0,18.41,11.55,18.41,18.82,0,6.26-3.65,16.84-17.32,16.84ZM143.83,4.95c-4.22,0-6.75,3.26-6.75,8.74,0,10.11,7.77,16.82,12.92,16.82,3.75,0,6.47-3.53,6.47-8.39,0-9.15-5.91-17.17-12.64-17.17Z"/><path class="a" d="M195.25,35.66c-8.32,0-11.9-1.38-13.07-1.83-4.05-1.58-7-5.44-7-9.18,0-6.38,8.17-10.13,12.89-11.77l3.19,3.26c-3.5,2.19-4.83,5.14-4.83,7.48,0,3.45,2.9,6.06,6.75,6.06a11.58,11.58,0,0,0,4.49-1l1.5-.59V16.84C199.19,11.33,198,5.7,189,5.7A28.37,28.37,0,0,0,177.3,8.22l1.53-6A55.71,55.71,0,0,1,193.61,0c14.58,0,14.58,8.61,14.58,16.22V34.65a82.46,82.46,0,0,1-12.93,1Z"/><path class="a" d="M254.13,34.23h-9V17.32c0-10.47-7.26-11.76-11.51-12.15l.14-.08,8.38-5a15.39,15.39,0,0,1,9,4.6c2.52,2.58,3,5.32,3,8.91V34.23Zm-23.93,0h-9V1.34l9-.36V34.23Z"/><path class="a" d="M263.77,5.35h-.62V.53h-2V0h4.32V.53h-1.74ZM267.45,0l1.93,4.25,2-4.25h.74l.3,5.35h-.63L271.53.78,269.63,5h-.58L267.21.75,267,5.35h-.6L266.68,0Z"/></svg>